<?xml version="1.0" encoding="utf-8"?>
<!-- Generator: Adobe Illustrator 27.8.0, SVG Export Plug-In . SVG Version: 6.00 Build 0)  -->
<svg version="1.1" id="Layer_1" xmlns="http://www.w3.org/2000/svg" xmlns:xlink="http://www.w3.org/1999/xlink" x="0px" y="0px"
	 viewBox="0 0 1200 1200" style="enable-background:new 0 0 1200 1200;" xml:space="preserve">
<style type="text/css">
	.st0{fill:#2655D5;}
	.st1{fill:#FFFFFF;}
</style>
<circle cx="600" cy="600" r="542.97"/>
<g>
	<g>
		<g>
			<g>
				<path class="st0" d="M264.03,465.07l20.02,29.11c20.34-15.07,41.93-28.43,64.34-40.51l-18.78-47.84
					C306.43,424.02,284.52,443.83,264.03,465.07z M389.85,433.6c10.12-4.34,20.14-8.86,30.59-12.56
					c16.39-5.8,32.76-10.57,49.09-14.5l-8.13-79.62c-32.62,14.16-63.84,31.31-93.39,51.06L389.85,433.6z M184.14,566.16l11.43,10.37
					c16.43-18.88,33.78-36.96,52.59-53.51l-15.67-22.78C215.02,521.2,198.86,543.22,184.14,566.16z M131.8,665.82
					c10.71-18.39,22.33-36.27,34.99-53.4l-6.54-5.93C149.74,625.79,140.22,645.59,131.8,665.82z M845.12,317.99l-70.45,125.28
					c25.66,13.87,49.79,30.48,72.02,49.64l109.13-102.62C923.29,360.33,886,335.99,845.12,317.99z M1000.13,438.2l-115.87,91.93
					c91.97,9.85,183.94,29.98,183.94,29.98C1052.59,518.58,1026.08,471.29,1000.13,438.2z M663.71,282.08l-20.74,117.13
					c27.89,4.4,54.86,11.64,80.78,21.35l67.18-122.09C750.84,287.11,708.14,281.48,663.71,282.08z M506.26,309.64l8.96,88.19
					c26.81-3.69,53.23-4.43,79.23-3.34l19.01-109.09c-20.6,2.43-41.45,6.02-62.54,11.17C535.8,300.26,520.94,304.71,506.26,309.64z"
					/>
			</g>
		</g>
	</g>
	<g>
		<g>
			<g>
				<g>
					<path class="st1" d="M463.69,849.82l-123.5-280.64h43.3l113.48,258.99H472.1l114.27-258.99h40.08L503.38,849.82H463.69z"/>
					<path class="st1" d="M754.74,853.04c-22.73,0-42.38-3.35-58.94-10.02c-16.59-6.67-29.4-16.23-38.47-28.68
						c-9.1-12.42-13.63-27.07-13.63-43.89c0-16.56,4.34-30.69,13.04-42.28c8.67-11.63,21.32-20.44,37.88-26.45
						c16.56-6.01,36.63-9.03,60.12-9.03c23.52,0,43.63,3.02,60.35,9.03c16.69,6.01,29.47,14.92,38.27,26.68
						c8.8,11.76,13.24,25.79,13.24,42.09c0,16.82-4.53,31.47-13.63,43.89c-9.1,12.42-22.04,21.98-38.9,28.68
						C797.26,849.69,777.48,853.04,754.74,853.04z M754.74,714.33c-21.39,0-39.56-2.86-54.54-8.61
						c-14.98-5.75-26.45-14.03-34.46-24.87c-8.02-10.84-12.02-23.72-12.02-38.7c0-15.77,4.21-29.34,12.62-40.71
						c8.41-11.37,20.24-20.11,35.48-26.25c15.24-6.14,32.89-9.23,52.93-9.23c20.3,0,38.08,3.09,53.32,9.23
						c15.24,6.14,27.14,14.92,35.68,26.25c8.54,11.37,12.81,24.94,12.81,40.71c0,14.98-4.01,27.86-12.02,38.7
						c-8.02,10.81-19.65,19.12-34.89,24.87C794.43,711.44,776.13,714.33,754.74,714.33z M754.74,820.58
						c22.44,0,40.02-4.6,52.73-13.83c12.68-9.23,19.06-21.72,19.06-37.49c0-15.51-6.34-27.73-19.06-36.7
						c-12.71-8.94-30.26-13.44-52.73-13.44c-22.18,0-39.56,4.47-52.11,13.44c-12.58,8.97-18.86,21.19-18.86,36.7
						c0,15.77,6.28,28.25,18.86,37.49C715.19,815.95,732.57,820.58,754.74,820.58z M754.74,688.68c19.52,0,34.83-4.01,45.9-12.02
						c11.1-8.02,16.62-18.99,16.62-32.89c0-14.16-5.75-25.26-17.25-33.28s-26.61-12.02-45.31-12.02c-18.73,0-33.61,4.01-44.71,12.02
						c-11.1,8.02-16.62,19.12-16.62,33.28c0,13.9,5.42,24.87,16.23,32.89S735.49,688.68,754.74,688.68z"/>
				</g>
			</g>
		</g>
	</g>
</g>
</svg>
