<?xml version="1.0" encoding="utf-8"?>
<!-- Generator: Adobe Illustrator 27.8.0, SVG Export Plug-In . SVG Version: 6.00 Build 0)  -->
<svg version="1.1" id="Layer_1" xmlns="http://www.w3.org/2000/svg" xmlns:xlink="http://www.w3.org/1999/xlink" x="0px" y="0px"
	 viewBox="0 0 1028.8 354.4" style="enable-background:new 0 0 1028.8 354.4;" xml:space="preserve">
<style type="text/css">
	.st0{fill:#2655D5;}
	.st1{fill:#FFFFFF;}
</style>
<g>
	<g>
		<g>
			<path class="st0" d="M0,339.1c0,0,39.4-110.9,169.9-125.4s177.8,17.4,393.8-11c0,0-134.3,38-305.8,26.5
				C140.4,221.5,44.5,279,0,339.1z"/>
		</g>
		<path class="st1" d="M273.5,199.2c0,0,180.1-95.4,298.9-83.9c171,16.6,262.6,66.3,406.7,68.4c0,0-77.7,11.4-233.1-13.5
			C541.5,137.5,514.9,112.1,273.5,199.2z"/>
		<path class="st1" d="M370.1,241.2c0,0,96.1-3.5,211.5-34.4c116.5-31.2,139.7-35.3,206.5-20.6c0,0-63.5-1.5-167.6,28.2
			C516.4,244.1,457.4,251,370.1,241.2z"/>
		<g>
			<path class="st0" d="M746.9,201.4c0,0,183.2-23.3,281.9,34.4c0,0-21,74.6-66.1,103.3C962.8,339.1,1091.9,215.4,746.9,201.4z"/>
		</g>
		<path class="st1" d="M102.3,310.4c0,0,4.4-22.9,26.2-42.2c0,0-67.3,23.8-118.4,72.1C10.1,340.3,61.1,309.8,102.3,310.4z"/>
		<g>
			<g>
				<path class="st0" d="M373.4,76.8l8.4,12.2c8.5-6.3,17.6-11.9,27-17l-7.9-20.1C391.2,59.6,382,67.9,373.4,76.8z M426.2,63.6
					c4.2-1.8,8.5-3.7,12.8-5.3c6.9-2.4,13.8-4.4,20.6-6.1l-3.4-33.4c-13.7,5.9-26.8,13.1-39.2,21.4L426.2,63.6z M339.9,119.3
					l4.8,4.3c6.9-7.9,14.2-15.5,22.1-22.5l-6.6-9.6C352.9,100.4,346.1,109.6,339.9,119.3z M317.9,161.1c4.5-7.7,9.4-15.2,14.7-22.4
					l-2.7-2.5C325.5,144.3,321.5,152.6,317.9,161.1z M617.3,15.1l-29.6,52.6c10.8,5.8,20.9,12.8,30.2,20.8l45.8-43.1
					C650.1,32.9,634.4,22.7,617.3,15.1z M682.3,65.6l-48.6,38.6c38.6,4.1,77.2,12.6,77.2,12.6C704.3,99.3,693.2,79.4,682.3,65.6z
					 M541.1,0l-8.7,49.1c11.7,1.9,23,4.9,33.9,9l28.2-51.2C577.7,2.2,559.8-0.2,541.1,0z M475.1,11.6l3.8,37
					c11.2-1.5,22.3-1.9,33.2-1.4l8-45.8c-8.7,1-17.4,2.5-26.2,4.7C487.5,7.7,481.2,9.5,475.1,11.6z"/>
			</g>
		</g>
	</g>
	<g>
		<g>
			<g>
				<g>
					<path class="st1" d="M195.1,351l-37.6-85.4h13.2l34.5,78.8h-7.6l34.8-78.8h12.2L207.1,351L195.1,351L195.1,351z"/>
					<path class="st1" d="M283.7,352c-6.9,0-12.9-1-17.9-3s-9-4.9-11.7-8.7c-2.8-3.8-4.2-8.2-4.2-13.4c0-5,1.3-9.3,4-12.9
						c2.6-3.5,6.5-6.2,11.5-8s11.2-2.8,18.3-2.8c7.2,0,13.3,0.9,18.4,2.8c5.1,1.8,9,4.5,11.7,8.1s4,7.8,4,12.8
						c0,5.1-1.4,9.6-4.1,13.4c-2.8,3.8-6.7,6.7-11.8,8.7C296.6,351,290.6,352,283.7,352z M283.7,309.8c-6.5,0-12-0.9-16.6-2.6
						s-8-4.3-10.5-7.6s-3.7-7.2-3.7-11.8c0-4.8,1.3-8.9,3.8-12.4s6.2-6.1,10.8-8s10-2.8,16.1-2.8c6.2,0,11.6,0.9,16.2,2.8
						s8.3,4.5,10.9,8s3.9,7.6,3.9,12.4c0,4.6-1.2,8.5-3.7,11.8c-2.4,3.3-6,5.8-10.6,7.6C295.8,308.9,290.2,309.8,283.7,309.8z
						 M283.7,342.1c6.8,0,12.2-1.4,16-4.2c3.9-2.8,5.8-6.6,5.8-11.4c0-4.7-1.9-8.4-5.8-11.2c-3.9-2.7-9.2-4.1-16-4.1
						s-12,1.4-15.9,4.1c-3.8,2.7-5.7,6.5-5.7,11.2c0,4.8,1.9,8.6,5.7,11.4C271.6,340.7,276.9,342.1,283.7,342.1z M283.7,301.9
						c5.9,0,10.6-1.2,14-3.7c3.4-2.4,5.1-5.8,5.1-10c0-4.3-1.8-7.7-5.2-10.1s-8.1-3.7-13.8-3.7c-5.7,0-10.2,1.2-13.6,3.7
						s-5.1,5.8-5.1,10.1c0,4.2,1.7,7.6,4.9,10C273.2,300.7,277.8,301.9,283.7,301.9z"/>
				</g>
			</g>
		</g>
		<g>
			<g>
				<path class="st1" d="M386.6,354.4c-7.1,0-13.6-1.1-19.6-3.4s-11.2-5.5-15.5-9.7s-7.8-9.1-10.2-14.7c-2.4-5.6-3.7-11.8-3.7-18.6
					s1.2-13,3.7-18.6c2.4-5.6,5.9-10.5,10.3-14.7s9.7-7.4,15.6-9.7c6-2.3,12.6-3.4,19.7-3.4c8,0,15.1,1.3,21.5,4s11.7,6.5,16.1,11.5
					l-13.2,12.3c-3.3-3.5-6.9-6.1-10.8-7.8s-8.1-2.5-12.7-2.5c-4.3,0-8.2,0.7-11.8,2.1c-3.6,1.4-6.7,3.4-9.3,6
					c-2.6,2.6-4.6,5.6-6,9.1s-2.1,7.4-2.1,11.7c0,4.1,0.7,7.9,2.1,11.5c1.4,3.5,3.4,6.6,6,9.2s5.7,4.6,9.2,6
					c3.5,1.5,7.5,2.2,11.7,2.2c4.1,0,8.1-0.7,12-2c3.9-1.4,7.7-3.6,11.4-6.8l11.8,15c-5,3.8-10.6,6.6-17,8.5
					C399.4,353.4,393,354.4,386.6,354.4z M403.9,340.3v-33.7h19V343L403.9,340.3z"/>
				<path class="st1" d="M430.3,352.8l39.9-89.7h20.5l40.3,89.7h-21.8l-33-79.2h8.3l-33,79.2H430.3z M450.4,333.6l5.3-15.8h46.4
					l5.4,15.8H450.4z"/>
				<path class="st1" d="M540.3,352.8v-89.7h38.8c8,0,15,1.3,20.8,3.9s10.3,6.3,13.5,11.2c3.2,4.9,4.7,10.6,4.7,17.3
					c0,6.8-1.6,12.5-4.7,17.4s-7.7,8.5-13.5,11s-12.7,3.8-20.8,3.8h-27.4l9.5-9v34.1L540.3,352.8L540.3,352.8z M561.2,321l-9.5-9.9
					H578c6.3,0,11.1-1.4,14.4-4.1s4.9-6.6,4.9-11.5c0-5-1.6-8.8-4.9-11.5c-3.2-2.7-8-4-14.4-4h-26.3l9.5-9.9V321z M597.5,352.8
					l-22.6-32.5h22.3l22.6,32.6h-22.3V352.8z"/>
				<path class="st1" d="M622.9,352.8l39.9-89.7h20.5l40.2,89.7h-21.8l-33-79.2h8.3l-33,79.2H622.9z M643,333.6l5.3-15.8h46.4
					l5.4,15.8H643z"/>
				<path class="st1" d="M776.2,354.4c-7.1,0-13.6-1.1-19.6-3.4s-11.2-5.5-15.5-9.7s-7.8-9.1-10.2-14.7s-3.7-11.8-3.7-18.6
					s1.2-13,3.7-18.6c2.4-5.6,5.9-10.5,10.3-14.7s9.7-7.4,15.6-9.7c6-2.3,12.6-3.4,19.7-3.4c8,0,15.1,1.3,21.5,4s11.7,6.5,16.1,11.5
					l-13.2,12.3c-3.3-3.5-6.9-6.1-10.8-7.8c-3.8-1.7-8.1-2.5-12.7-2.5c-4.3,0-8.2,0.7-11.8,2.1s-6.7,3.4-9.3,6s-4.6,5.6-6,9.1
					s-2.1,7.4-2.1,11.7c0,4.1,0.7,7.9,2.1,11.5c1.4,3.5,3.4,6.6,6,9.2s5.7,4.6,9.2,6c3.5,1.5,7.5,2.2,11.7,2.2c4.1,0,8.1-0.7,12-2
					s7.7-3.6,11.3-6.8l11.8,15c-5,3.8-10.6,6.6-17,8.5C789,353.4,782.6,354.4,776.2,354.4z M793.5,340.3v-33.7h19V343L793.5,340.3z"
					/>
				<path class="st1" d="M852.3,336.2h48.8v16.7h-69.5v-89.7h67.8v16.7h-47.2v56.3H852.3z M850.8,299.1H894v16.3h-43.2V299.1z"/>
			</g>
		</g>
	</g>
</g>
</svg>
